<?xml version="1.0" standalone="no"?>
<!DOCTYPE svg PUBLIC "-//W3C//DTD SVG 20010904//EN"
 "http://www.w3.org/TR/2001/REC-SVG-20010904/DTD/svg10.dtd">
<svg version="1.0" xmlns="http://www.w3.org/2000/svg"
 width="1114.000000pt" height="1226.000000pt" viewBox="0 0 1114.000000 1226.000000"
 preserveAspectRatio="xMidYMid meet">
<metadata>
Created by potrace 1.16, written by Peter Selinger 2001-2019
</metadata>
<g transform="translate(0.000000,1226.000000) scale(0.100000,-0.100000)"
fill="#000000" stroke="none">
<path d="M0 6130 l0 -6130 5570 0 5570 0 -1 4748 c-1 2611 -5 4718 -10 4682
-32 -253 -123 -501 -234 -643 -55 -69 -70 -73 -61 -14 23 160 28 263 23 511
-5 297 -8 317 -87 541 -105 294 -317 560 -540 676 -63 33 -69 34 -180 34 -111
0 -118 -1 -183 -33 -70 -35 -183 -121 -249 -189 l-37 -38 -3 -1800 -4 -1800
-46 -145 c-65 -205 -93 -270 -159 -370 -136 -209 -363 -374 -636 -464 -46 -15
-85 -32 -88 -37 -4 -5 42 -91 101 -191 585 -991 950 -1875 1108 -2683 62 -312
88 -680 68 -938 -36 -447 -176 -801 -412 -1037 -184 -184 -398 -291 -693 -347
-132 -25 -497 -24 -657 1 -1021 160 -2207 833 -3450 1960 -335 303 -813 797
-1135 1171 -1447 1682 -2405 3571 -2535 5000 -13 141 -13 463 0 580 45 406
178 721 399 945 101 102 182 161 306 223 183 91 333 129 572 146 483 34 1061
-110 1721 -430 478 -231 916 -506 1427 -894 l160 -122 55 19 c253 86 561 74
788 -32 l62 -29 1 977 c1 537 4 1157 8 1377 6 384 7 402 28 441 50 95 130 131
211 98 91 -38 112 -104 112 -349 l0 -164 83 1 c99 1 168 -14 266 -58 214 -98
467 -361 577 -600 139 -299 108 -727 -67 -924 l-40 -45 8 85 c5 47 8 157 7
245 -1 142 -4 170 -28 248 -67 224 -198 401 -360 489 -53 29 -70 33 -136 33
-65 0 -84 -5 -140 -32 -36 -18 -89 -53 -117 -78 l-53 -47 0 -1082 0 -1082 -34
-100 c-45 -136 -80 -204 -138 -268 l-49 -55 138 -143 c175 -181 498 -532 553
-601 3 -4 55 24 116 63 264 169 552 243 886 226 200 -10 364 -52 567 -147 57
-27 105 -48 107 -47 1 2 5 982 9 2178 3 1196 10 2232 15 2302 5 71 16 143 24
162 19 45 93 125 131 142 25 11 -765 13 -4592 14 l-4623 0 0 -6130z m941 2452
c-20 -126 -33 -406 -27 -551 49 -1120 567 -2501 1434 -3816 163 -249 257 -381
451 -640 258 -343 410 -522 681 -799 388 -396 742 -703 1027 -890 56 -37 108
-75 115 -85 20 -29 213 -163 403 -282 554 -346 1061 -586 1780 -842 838 -298
1460 -418 1875 -363 235 32 350 70 693 232 98 46 183 84 189 84 11 0 -35 -86
-95 -175 -51 -76 -175 -199 -252 -250 -122 -80 -259 -137 -417 -172 -71 -15
-130 -18 -423 -18 -307 1 -353 3 -470 23 -598 104 -1300 339 -1930 646 -513
250 -952 519 -1491 914 l-71 52 -79 -34 c-44 -18 -155 -70 -249 -113 -505
-237 -1080 -423 -1308 -423 -48 0 -50 -1 -31 -16 18 -14 16 -15 -31 -11 -36 4
-98 30 -242 102 -312 157 -438 250 -699 517 -310 319 -586 682 -823 1086 -103
174 -259 504 -317 669 -18 51 -18 54 -1 85 21 39 238 343 588 823 141 193 294
406 342 476 l86 125 -76 155 c-433 887 -699 1686 -789 2372 -21 164 -29 480
-15 612 22 206 71 390 142 540 38 79 46 70 30 -33z m-717 -5012 c17 -342 118
-631 374 -1065 143 -243 475 -723 660 -955 42 -52 135 -155 206 -229 212 -216
404 -361 621 -466 207 -100 370 -142 593 -152 73 -3 129 -9 125 -13 -11 -11
-239 -83 -358 -114 -349 -91 -592 -41 -892 183 -171 127 -465 438 -740 781
-606 758 -846 1275 -794 1710 15 124 33 183 91 307 58 124 90 171 100 152 4
-8 10 -70 14 -139z"/>
<path d="M9425 12242 c42 -26 88 -80 115 -137 29 -60 38 -155 39 -401 1 -100
4 -209 7 -243 l7 -61 117 0 c308 0 503 -94 793 -384 356 -356 567 -744 622
-1145 11 -83 13 74 14 1147 l1 1242 -872 0 c-850 0 -872 -1 -843 -18z"/>
<path d="M2715 9834 c-68 -10 -205 -46 -278 -73 -348 -130 -574 -420 -674
-866 -48 -214 -43 -631 12 -941 197 -1122 915 -2496 1964 -3759 251 -302 422
-488 755 -820 318 -318 551 -528 841 -760 1206 -964 2391 -1414 3113 -1184
289 93 488 264 627 538 45 89 102 277 126 416 29 166 31 489 5 689 -92 705
-382 1477 -899 2394 -56 99 -87 144 -101 147 -12 3 -77 14 -146 25 -236 37
-409 101 -579 214 -216 143 -378 360 -436 582 -18 70 -20 301 -4 390 6 32 31
108 55 167 41 99 44 111 31 130 -38 59 -483 541 -664 719 l-98 98 -50 -17
c-40 -13 -94 -17 -270 -17 -204 -1 -225 1 -295 23 -220 69 -399 208 -476 370
-36 78 -57 183 -49 251 7 56 51 179 85 237 l19 33 -58 44 c-83 64 -394 270
-541 358 -523 313 -995 505 -1450 589 -77 15 -163 21 -320 24 -118 2 -228 1
-245 -1z m1630 -3369 c438 -67 864 -257 1235 -551 107 -85 314 -292 404 -404
352 -439 555 -960 585 -1500 27 -482 -76 -917 -308 -1308 -112 -190 -114 -191
-222 -153 -205 70 -409 220 -689 507 -153 157 -281 304 -590 679 -336 408
-403 485 -900 1030 -573 627 -820 979 -931 1323 -38 116 -36 123 27 159 171
98 532 208 769 233 116 13 502 3 620 -15z"/>
</g>
</svg>
