<?xml version="1.0" standalone="no"?>
<!DOCTYPE svg PUBLIC "-//W3C//DTD SVG 20010904//EN"
 "http://www.w3.org/TR/2001/REC-SVG-20010904/DTD/svg10.dtd">
<svg version="1.0" xmlns="http://www.w3.org/2000/svg"
 width="891.000000pt" height="981.000000pt" viewBox="0 0 891.000000 981.000000"
 preserveAspectRatio="xMidYMid meet">
<metadata>
Created by potrace 1.16, written by Peter Selinger 2001-2019
</metadata>
<g transform="translate(0.000000,981.000000) scale(0.100000,-0.100000)"
fill="#000000" stroke="none">
<path d="M7363 9790 c-18 -11 -46 -38 -63 -61 -64 -89 -60 36 -60 -1956 0
-997 -3 -1813 -7 -1813 -4 0 -42 18 -84 40 -91 47 -224 92 -329 111 -106 19
-325 17 -433 -5 -156 -30 -325 -102 -438 -187 -42 -31 -55 -37 -65 -27 -6 7
-72 81 -146 163 -74 83 -197 214 -272 293 l-138 142 40 44 c50 54 74 100 112
215 l30 89 0 865 0 865 43 37 c107 93 213 113 316 61 152 -78 278 -271 311
-479 12 -73 9 -239 -6 -337 l-5 -35 31 35 c74 84 120 237 120 400 0 259 -113
476 -363 697 -127 113 -290 175 -409 156 l-38 -6 0 149 c0 190 -20 242 -104
274 -66 25 -145 -38 -165 -130 -8 -35 -11 -382 -11 -1125 l0 -1075 -32 20
c-51 31 -178 68 -278 81 -108 14 -230 1 -348 -36 l-77 -24 -40 32 c-180 145
-516 380 -735 514 -715 435 -1376 652 -1872 613 -136 -11 -205 -23 -304 -56
-864 -282 -959 -1480 -243 -3062 909 -2008 2875 -4046 4539 -4705 667 -264
1227 -282 1599 -50 280 175 445 482 492 918 14 133 6 422 -16 581 -94 686
-419 1517 -914 2341 -50 84 -94 158 -97 166 -3 10 14 19 58 31 35 10 100 35
144 55 258 121 428 315 493 561 11 41 29 100 40 130 20 54 20 77 21 1491 l0
1436 74 70 c46 44 99 83 142 104 63 31 76 34 164 34 91 0 98 -1 169 -39 131
-71 280 -241 366 -419 41 -86 87 -226 106 -322 20 -99 18 -483 -3 -587 -8 -43
-11 -78 -7 -78 17 0 90 109 128 191 92 197 129 456 100 694 -40 329 -207 643
-494 931 -232 233 -401 316 -630 313 l-110 -2 -5 254 c-5 238 -6 257 -28 304
-26 56 -63 100 -104 121 -40 21 -127 18 -165 -6z m-4804 -1925 c375 -53 790
-217 1246 -493 136 -82 353 -226 426 -284 l37 -28 -39 -77 c-50 -99 -60 -175
-34 -268 45 -167 192 -300 405 -367 66 -20 94 -23 235 -22 124 0 171 4 210 18
l50 17 169 -173 c158 -162 431 -462 449 -494 5 -9 -3 -38 -22 -77 -54 -114
-66 -170 -65 -307 0 -110 3 -135 27 -204 113 -323 429 -550 831 -595 49 -6 93
-14 97 -18 24 -26 208 -362 304 -558 529 -1071 645 -1964 320 -2466 -183 -283
-520 -414 -943 -368 -1043 113 -2479 1169 -3577 2631 -704 936 -1165 1912
-1286 2718 -25 170 -30 457 -10 585 66 425 272 695 611 799 47 15 112 30 145
35 97 14 302 12 414 -4z"/>
<path d="M2960 5179 c-173 -22 -372 -79 -530 -152 -121 -56 -117 -51 -90 -138
86 -286 293 -578 796 -1123 339 -369 405 -444 652 -746 306 -373 384 -463 542
-620 196 -197 344 -302 501 -357 56 -19 73 -22 85 -12 8 7 40 53 71 103 234
377 317 824 242 1286 -149 905 -897 1636 -1797 1755 -120 16 -364 18 -472 4z"/>
<path d="M723 6873 c-153 -339 -152 -775 2 -1391 105 -420 301 -934 526 -1384
38 -76 69 -143 69 -148 0 -16 -176 -264 -519 -730 -168 -228 -304 -422 -304
-432 5 -55 162 -403 256 -563 94 -161 243 -384 329 -493 262 -332 473 -547
663 -674 110 -74 397 -218 434 -218 l26 1 -22 12 c-20 11 -16 13 42 15 208 6
698 170 1103 368 111 55 198 92 205 87 7 -4 62 -43 122 -88 509 -374 1052
-678 1575 -882 426 -167 820 -279 1151 -327 144 -22 516 -22 626 -1 278 53
474 185 603 405 22 38 40 70 40 72 0 2 -60 -25 -133 -62 -135 -67 -321 -145
-367 -154 -14 -2 -55 -12 -92 -20 -327 -78 -823 -2 -1500 230 -696 239 -1170
465 -1686 807 -100 67 -181 126 -178 132 2 6 -39 37 -92 70 -201 126 -489 373
-784 671 -253 256 -392 420 -640 754 -869 1171 -1404 2452 -1453 3485 -6 135
6 375 25 475 5 25 7 46 6 48 -2 1 -17 -28 -33 -65z"/>
<path d="M142 2943 c-34 -48 -89 -171 -107 -238 -9 -33 -19 -103 -22 -155 -19
-339 174 -734 648 -1325 530 -660 810 -846 1186 -785 69 11 276 70 350 99 l47
18 -100 1 c-411 3 -843 275 -1203 755 -374 501 -602 879 -692 1147 -51 153
-69 245 -77 395 l-7 120 -23 -32z"/>
</g>
</svg>
